<svg xmlns="http://www.w3.org/2000/svg" width="2172" height="724" viewBox="0 0 2172 724">
  
  <path d="M 1922 483 L 1922 505 L 1924 510 L 1927 513 L 1931 515 L 1942 515 L 1946 513 L 1950 508 L 1951 505 L 1950 483 L 1948 483 L 1948 504 L 1947 507 L 1943 511 L 1939 513 L 1934 513 L 1931 512 L 1926 507 L 1925 505 L 1924 483 Z M 1867 484 L 1860 490 L 1858 494 L 1858 504 L 1860 508 L 1865 513 L 1870 515 L 1881 515 L 1887 512 L 1890 509 L 1893 502 L 1893 496 L 1890 489 L 1887 486 L 1881 483 L 1870 483 Z M 1872 485 L 1878 485 L 1883 487 L 1889 493 L 1890 496 L 1890 502 L 1889 505 L 1883 511 L 1878 513 L 1872 513 L 1869 512 L 1863 507 L 1861 503 L 1861 495 L 1863 491 L 1867 487 Z M 1802 483 L 1802 485 L 1804 488 L 1808 492 L 1815 502 L 1815 515 L 1818 514 L 1818 502 L 1828 489 L 1831 483 L 1828 483 L 1820 495 L 1816 498 L 1812 494 L 1807 486 L 1804 483 Z M 1717 483 L 1715 485 L 1718 514 L 1719 503 L 1721 502 L 1727 502 L 1731 506 L 1736 515 L 1738 515 L 1738 513 L 1732 503 L 1737 499 L 1739 495 L 1739 491 L 1738 488 L 1734 484 L 1731 483 Z M 1718 487 L 1720 485 L 1729 485 L 1732 486 L 1736 491 L 1736 495 L 1730 500 L 1720 500 L 1718 498 Z M 1664 484 L 1665 515 L 1686 515 L 1685 513 L 1668 512 L 1667 510 L 1667 502 L 1669 500 L 1683 498 L 1668 497 L 1667 495 L 1667 487 L 1669 485 L 1686 483 Z M 1610 483 L 1611 485 L 1619 485 L 1621 487 L 1622 515 L 1624 515 L 1624 487 L 1626 485 L 1636 483 Z M 1558 483 L 1559 485 L 1569 486 L 1572 514 L 1572 487 L 1574 485 L 1584 484 Z M 1509 484 L 1510 515 L 1531 514 L 1514 513 L 1512 511 L 1512 502 L 1514 500 L 1528 499 L 1514 498 L 1512 496 L 1512 487 L 1514 485 L 1531 484 Z M 1452 483 L 1451 485 L 1452 515 L 1471 515 L 1475 513 L 1477 510 L 1477 503 L 1472 498 L 1475 493 L 1475 489 L 1473 485 L 1470 483 Z M 1454 502 L 1456 500 L 1469 500 L 1474 504 L 1474 508 L 1471 512 L 1468 513 L 1457 513 L 1454 510 Z M 1454 487 L 1456 485 L 1466 485 L 1469 486 L 1472 489 L 1472 493 L 1470 496 L 1466 498 L 1457 498 L 1454 495 Z M 1369 485 L 1365 495 L 1357 511 L 1356 515 L 1359 514 L 1361 509 L 1364 507 L 1378 507 L 1381 509 L 1383 514 L 1386 515 L 1385 510 L 1381 503 L 1373 484 Z M 1373 490 L 1373 492 L 1378 501 L 1377 505 L 1364 504 L 1364 502 L 1369 491 Z M 1270 484 L 1270 515 L 1272 515 L 1273 513 L 1273 504 L 1275 502 L 1282 502 L 1287 508 L 1289 513 L 1291 515 L 1293 515 L 1287 504 L 1287 502 L 1289 500 L 1290 500 L 1293 496 L 1293 489 L 1292 487 L 1290 485 L 1286 483 Z M 1272 489 L 1275 485 L 1283 485 L 1286 486 L 1290 490 L 1290 496 L 1287 499 L 1284 500 L 1273 499 L 1273 496 L 1272 495 L 1272 493 L 1273 492 Z M 1210 487 L 1208 489 L 1205 496 L 1205 502 L 1207 507 L 1210 511 L 1217 515 L 1228 515 L 1233 513 L 1238 508 L 1240 504 L 1240 494 L 1238 490 L 1233 485 L 1228 483 L 1218 483 Z M 1220 485 L 1225 485 L 1232 488 L 1235 491 L 1237 495 L 1237 503 L 1235 507 L 1232 510 L 1226 513 L 1219 513 L 1215 511 L 1210 506 L 1208 502 L 1208 497 L 1210 492 L 1215 487 Z M 1178 483 L 1157 483 L 1157 515 L 1159 515 L 1159 503 L 1162 500 L 1176 500 L 1175 498 L 1161 498 L 1159 496 L 1159 487 L 1161 485 L 1178 485 Z M 1074 483 L 1070 485 L 1068 487 L 1067 489 L 1067 493 L 1070 497 L 1084 502 L 1087 505 L 1087 509 L 1082 513 L 1075 513 L 1069 509 L 1067 509 L 1067 511 L 1069 513 L 1073 515 L 1084 515 L 1090 510 L 1090 504 L 1089 502 L 1085 499 L 1074 496 L 1070 492 L 1070 490 L 1071 488 L 1075 485 L 1088 486 L 1084 483 Z M 1017 484 L 1018 515 L 1039 514 L 1022 513 L 1020 511 L 1020 502 L 1022 500 L 1036 499 L 1023 498 L 1021 497 L 1020 487 L 1022 485 L 1039 484 Z M 958 484 L 959 515 L 961 515 L 961 502 L 963 500 L 981 500 L 983 503 L 982 509 L 983 510 L 983 515 L 985 515 L 985 483 L 982 484 L 983 495 L 980 498 L 962 497 L 961 495 L 961 483 Z M 904 483 L 904 485 L 913 485 L 915 487 L 915 515 L 918 514 L 918 487 L 920 485 L 930 483 Z M 849 486 L 846 489 L 843 495 L 843 502 L 846 509 L 849 512 L 855 515 L 866 515 L 872 512 L 876 508 L 878 503 L 878 495 L 875 489 L 872 486 L 866 483 L 855 483 Z M 857 485 L 863 485 L 868 487 L 874 493 L 875 496 L 875 502 L 874 505 L 868 511 L 863 513 L 858 513 L 853 511 L 847 505 L 846 502 L 846 496 L 848 492 L 854 486 Z M 798 484 L 799 515 L 819 515 L 819 513 L 803 513 L 801 511 L 800 483 Z M 745 485 L 740 490 L 738 494 L 738 504 L 740 508 L 745 513 L 750 515 L 761 515 L 766 513 L 769 510 L 767 508 L 763 511 L 758 513 L 752 513 L 746 510 L 743 507 L 741 503 L 741 495 L 743 491 L 746 488 L 752 485 L 758 485 L 762 486 L 766 489 L 768 489 L 768 487 L 766 485 L 761 483 L 750 483 Z M 236 448 L 236 462 L 239 472 L 245 482 L 252 489 L 345 550 L 360 561 L 392 582 L 400 586 L 410 589 L 428 589 L 438 586 L 444 583 L 550 518 L 560 513 L 601 488 L 607 481 L 611 470 L 611 463 L 610 459 L 607 456 L 602 456 L 600 457 L 598 460 L 597 465 L 594 471 L 589 476 L 536 507 L 531 511 L 516 519 L 503 524 L 494 526 L 480 526 L 472 524 L 464 520 L 422 492 L 373 461 L 354 450 L 308 420 L 298 415 L 292 413 L 286 412 L 277 412 L 271 413 L 260 417 L 255 420 L 244 430 L 238 441 Z M 254 446 L 258 439 L 263 434 L 270 430 L 278 428 L 284 428 L 292 430 L 301 435 L 312 443 L 334 456 L 361 474 L 380 485 L 410 505 L 450 530 L 467 537 L 482 540 L 475 545 L 446 562 L 438 568 L 430 572 L 426 573 L 412 573 L 408 572 L 396 565 L 384 556 L 360 541 L 295 498 L 289 493 L 283 490 L 280 487 L 271 482 L 261 475 L 257 470 L 253 461 L 253 449 Z M 1706 294 L 1704 293 L 1686 293 L 1676 296 L 1668 300 L 1664 303 L 1658 310 L 1653 312 L 1654 301 L 1653 298 L 1650 295 L 1644 294 L 1641 295 L 1638 298 L 1638 405 L 1641 408 L 1643 409 L 1648 409 L 1653 405 L 1653 347 L 1655 336 L 1659 326 L 1661 323 L 1670 314 L 1680 309 L 1690 307 L 1699 308 L 1705 308 L 1707 307 L 1710 301 L 1709 297 Z M 1280 297 L 1279 299 L 1279 405 L 1282 408 L 1284 409 L 1289 409 L 1293 407 L 1295 403 L 1295 341 L 1298 330 L 1301 324 L 1309 315 L 1313 312 L 1321 308 L 1330 306 L 1338 306 L 1343 307 L 1350 310 L 1361 320 L 1365 327 L 1368 339 L 1368 403 L 1369 406 L 1373 409 L 1378 409 L 1380 408 L 1384 403 L 1384 340 L 1386 332 L 1391 322 L 1394 318 L 1401 312 L 1412 307 L 1419 306 L 1429 307 L 1441 313 L 1448 321 L 1452 329 L 1454 339 L 1454 404 L 1455 406 L 1459 409 L 1465 409 L 1469 406 L 1470 404 L 1470 336 L 1469 330 L 1466 320 L 1462 312 L 1453 302 L 1447 298 L 1434 293 L 1428 292 L 1418 292 L 1408 294 L 1392 302 L 1388 305 L 1383 310 L 1380 315 L 1378 316 L 1376 314 L 1374 310 L 1366 302 L 1358 297 L 1347 293 L 1341 292 L 1332 292 L 1319 295 L 1309 300 L 1296 312 L 1295 300 L 1291 295 L 1283 295 Z M 1185 292 L 1175 294 L 1166 297 L 1156 302 L 1150 306 L 1139 317 L 1135 323 L 1129 337 L 1128 341 L 1128 348 L 1127 349 L 1127 355 L 1129 366 L 1133 376 L 1138 384 L 1149 395 L 1156 400 L 1166 405 L 1175 408 L 1185 410 L 1198 410 L 1215 406 L 1229 399 L 1241 389 L 1241 388 L 1248 380 L 1253 370 L 1256 358 L 1256 345 L 1253 332 L 1248 322 L 1243 315 L 1232 305 L 1224 300 L 1212 295 L 1198 292 Z M 1173 310 L 1183 307 L 1200 307 L 1211 310 L 1223 317 L 1232 326 L 1237 335 L 1240 347 L 1240 355 L 1239 361 L 1233 374 L 1225 383 L 1215 390 L 1208 393 L 1200 395 L 1183 395 L 1173 392 L 1162 386 L 1155 380 L 1149 372 L 1144 360 L 1144 343 L 1146 336 L 1151 327 L 1162 316 Z M 1905 291 L 1892 294 L 1879 300 L 1868 308 L 1860 317 L 1853 330 L 1850 341 L 1850 362 L 1853 373 L 1858 383 L 1872 398 L 1878 402 L 1894 409 L 1904 411 L 1921 411 L 1942 405 L 1952 400 L 1958 396 L 1963 391 L 1963 387 L 1958 382 L 1952 382 L 1943 389 L 1935 393 L 1926 396 L 1921 397 L 1905 397 L 1900 396 L 1888 391 L 1881 386 L 1875 380 L 1872 376 L 1868 368 L 1867 362 L 1866 361 L 1867 358 L 1966 358 L 1969 357 L 1972 353 L 1972 341 L 1968 326 L 1964 318 L 1958 311 L 1958 310 L 1950 303 L 1938 296 L 1929 293 L 1920 291 Z M 1866 342 L 1871 328 L 1873 325 L 1884 314 L 1895 308 L 1902 306 L 1915 305 L 1916 306 L 1922 306 L 1932 309 L 1940 314 L 1950 324 L 1955 334 L 1955 338 L 1956 339 L 1955 343 L 1946 344 L 1868 344 Z M 1774 291 L 1765 293 L 1752 298 L 1741 305 L 1731 315 L 1726 322 L 1723 328 L 1719 341 L 1719 362 L 1722 373 L 1726 381 L 1730 387 L 1744 400 L 1755 406 L 1767 410 L 1773 411 L 1790 411 L 1808 406 L 1818 401 L 1827 395 L 1831 391 L 1831 387 L 1830 385 L 1826 382 L 1820 382 L 1812 388 L 1805 392 L 1797 395 L 1788 397 L 1776 397 L 1764 394 L 1756 390 L 1742 377 L 1737 367 L 1735 360 L 1735 344 L 1737 336 L 1743 325 L 1753 315 L 1759 311 L 1769 307 L 1773 306 L 1792 306 L 1800 308 L 1812 314 L 1819 320 L 1822 321 L 1824 321 L 1828 319 L 1831 316 L 1831 311 L 1826 306 L 1819 301 L 1804 294 L 1791 291 Z M 1549 291 L 1532 295 L 1520 301 L 1513 306 L 1505 314 L 1500 321 L 1494 335 L 1492 345 L 1492 358 L 1494 368 L 1499 380 L 1503 386 L 1518 400 L 1529 406 L 1547 411 L 1563 411 L 1576 408 L 1590 402 L 1597 398 L 1604 393 L 1605 391 L 1605 387 L 1604 385 L 1599 382 L 1595 382 L 1585 389 L 1577 393 L 1568 396 L 1563 397 L 1548 397 L 1543 396 L 1531 391 L 1525 387 L 1517 379 L 1513 373 L 1510 366 L 1509 362 L 1510 358 L 1595 357 L 1609 358 L 1612 357 L 1615 353 L 1615 341 L 1613 332 L 1608 320 L 1604 314 L 1594 304 L 1588 300 L 1578 295 L 1572 293 L 1562 291 Z M 1509 342 L 1511 334 L 1515 326 L 1523 317 L 1533 310 L 1541 307 L 1553 305 L 1569 307 L 1583 314 L 1593 324 L 1597 332 L 1599 342 L 1597 344 L 1533 343 L 1511 344 Z M 1054 291 L 1041 294 L 1030 299 L 1021 305 L 1010 316 L 1007 320 L 1002 330 L 1000 336 L 998 346 L 998 357 L 999 364 L 1002 373 L 1006 381 L 1014 391 L 1021 397 L 1027 401 L 1043 408 L 1052 410 L 1070 410 L 1084 406 L 1098 399 L 1108 392 L 1109 390 L 1109 386 L 1105 382 L 1100 381 L 1097 382 L 1091 387 L 1082 392 L 1066 396 L 1057 396 L 1044 393 L 1036 389 L 1030 385 L 1024 379 L 1017 368 L 1014 357 L 1014 346 L 1016 337 L 1021 327 L 1030 317 L 1037 312 L 1049 307 L 1054 306 L 1070 306 L 1075 307 L 1085 311 L 1090 314 L 1097 320 L 1104 320 L 1106 319 L 1109 316 L 1109 311 L 1104 306 L 1097 301 L 1082 294 L 1069 291 Z M 925 290 L 914 292 L 903 296 L 894 301 L 883 310 L 876 319 L 870 331 L 867 344 L 867 358 L 868 364 L 873 377 L 879 386 L 888 395 L 895 400 L 910 407 L 923 410 L 935 410 L 942 409 L 952 406 L 969 398 L 975 394 L 979 390 L 979 386 L 973 381 L 968 381 L 960 387 L 950 392 L 939 395 L 921 395 L 907 390 L 901 386 L 891 376 L 885 365 L 883 356 L 883 346 L 886 334 L 893 322 L 899 316 L 906 311 L 918 306 L 923 305 L 938 305 L 947 307 L 959 313 L 968 320 L 973 320 L 977 318 L 979 315 L 979 311 L 977 308 L 972 304 L 959 296 L 943 291 L 936 290 Z M 780 290 L 770 292 L 755 298 L 746 304 L 735 315 L 731 321 L 725 335 L 723 346 L 723 358 L 727 374 L 732 384 L 736 389 L 748 400 L 762 407 L 772 410 L 778 411 L 797 411 L 810 408 L 820 404 L 829 399 L 838 392 L 839 389 L 838 386 L 833 382 L 828 382 L 815 391 L 802 396 L 797 397 L 779 397 L 774 396 L 762 391 L 756 387 L 749 380 L 743 370 L 740 359 L 823 357 L 842 358 L 846 356 L 848 352 L 847 335 L 844 324 L 840 316 L 834 308 L 827 302 L 817 296 L 806 292 L 796 290 Z M 741 339 L 742 335 L 747 325 L 756 315 L 765 309 L 773 306 L 783 304 L 793 304 L 803 306 L 812 310 L 818 314 L 823 319 L 828 326 L 831 333 L 832 338 L 831 343 L 821 344 L 741 343 Z M 611 332 L 609 327 L 602 321 L 452 231 L 457 227 L 466 223 L 476 216 L 487 204 L 495 188 L 496 183 L 496 167 L 493 157 L 489 149 L 483 142 L 483 141 L 475 134 L 466 129 L 454 125 L 449 124 L 434 124 L 425 126 L 412 131 L 403 137 L 395 144 L 395 145 L 391 149 L 385 159 L 382 170 L 382 181 L 383 183 L 386 185 L 390 186 L 394 185 L 398 180 L 399 170 L 402 163 L 406 157 L 413 150 L 419 146 L 431 141 L 438 140 L 446 140 L 457 143 L 465 148 L 473 156 L 477 163 L 479 169 L 479 182 L 478 186 L 475 192 L 470 199 L 462 206 L 456 210 L 438 219 L 413 234 L 377 257 L 336 281 L 249 335 L 239 346 L 236 355 L 236 367 L 239 373 L 241 374 L 245 374 L 248 372 L 252 358 L 256 351 L 259 348 L 333 302 L 364 284 L 377 275 L 382 273 L 405 258 L 410 256 L 420 249 L 434 241 L 437 241 L 579 326 L 584 330 L 589 332 L 592 335 L 457 415 L 452 419 L 443 423 L 438 424 L 424 424 L 420 426 L 418 429 L 418 432 L 422 437 L 431 439 L 443 439 L 448 438 L 458 434 L 549 379 L 566 370 L 603 348 L 609 343 L 611 339 Z" fill="#FFFFFF" fill-rule="evenodd"/>
</svg>
